<svg xmlns="http://www.w3.org/2000/svg" width="1200" height="630" viewBox="0 0 1200 630">
  <defs>
    <linearGradient id="bg" x1="0" y1="0" x2="1" y2="1">
      <stop offset="0" stop-color="#edf5ff"/>
      <stop offset="1" stop-color="#dbe5f2"/>
    </linearGradient>
    <linearGradient id="case" x1="0" y1="0" x2="1" y2="1">
      <stop offset="0" stop-color="#8593a1"/>
      <stop offset="1" stop-color="#4f5e6e"/>
    </linearGradient>
  </defs>
  <rect width="1200" height="630" rx="0" fill="url(#bg)"/>
  <circle cx="1040" cy="100" r="260" fill="none" stroke="#a8bed8" opacity=".35"/>
  <circle cx="120" cy="600" r="260" fill="none" stroke="#a8bed8" opacity=".35"/>
  <text x="80" y="145" font-family="-apple-system,BlinkMacSystemFont,Arial,sans-serif" font-size="28" font-weight="700" fill="#0677e8">TRAVEL CHECKLIST</text>
  <text x="80" y="245" font-family="-apple-system,BlinkMacSystemFont,Arial,sans-serif" font-size="78" font-weight="700" letter-spacing="-4" fill="#1d1d1f">Pack everything.</text>
  <text x="80" y="330" font-family="-apple-system,BlinkMacSystemFont,Arial,sans-serif" font-size="78" font-weight="700" letter-spacing="-4" fill="#76767b">Travel lighter.</text>
  <text x="84" y="395" font-family="-apple-system,BlinkMacSystemFont,Arial,sans-serif" font-size="25" fill="#6e6e73">A personal packing list for every journey.</text>
  <rect x="810" y="155" width="245" height="340" rx="38" fill="#fff" stroke="#1d1d1f" stroke-width="12" transform="rotate(5 932 325)"/>
  <rect x="890" y="174" width="82" height="22" rx="12" fill="#1d1d1f" transform="rotate(5 932 325)"/>
  <text x="848" y="270" font-family="-apple-system,BlinkMacSystemFont,Arial,sans-serif" font-size="62" font-weight="700" fill="#1d1d1f">53%</text>
  <rect x="850" y="300" width="165" height="10" rx="5" fill="#e8e8ed"/>
  <rect x="850" y="300" width="88" height="10" rx="5" fill="#0677e8"/>
  <circle cx="865" cy="352" r="12" fill="#0677e8"/>
  <path d="m859 352 5 5 9-11" fill="none" stroke="#fff" stroke-width="3"/>
  <text x="890" y="360" font-family="-apple-system,BlinkMacSystemFont,Arial,sans-serif" font-size="18" fill="#6e6e73">Passport</text>
  <rect x="560" y="360" width="205" height="190" rx="28" fill="url(#case)" transform="rotate(-6 660 455)"/>
  <path d="M620 360v-35c0-22 18-40 40-40s40 18 40 40v35" fill="none" stroke="#667686" stroke-width="16"/>
  <circle cx="704" cy="410" r="26" fill="#0677e8"/>
  <path d="m694 410 8 8 15-18" fill="none" stroke="#fff" stroke-width="5" stroke-linecap="round"/>
</svg>
